<svg width="128" height="128" xmlns="http://www.w3.org/2000/svg">

 <g>
  <title>background</title>
  <rect fill="none" id="canvas_background" height="402" width="582" y="-1" x="-1"/>
 </g>
 <g>
  <title>Layer 1</title>
  <path stroke="null" id="Codepen_1_" fill-rule="evenodd" fill="#ffffff" d="m105.234511,76.573377l-10.705413,-7.206762l10.705413,-7.206762l0,14.413525zm-36.95546,30.549657l0,-20.085601l18.553975,-12.487337l14.97513,10.078819l-33.529105,22.494119zm-4.279053,-27.56798l-15.133844,-10.188439l15.133844,-10.188439l15.136956,10.188439l-15.136956,10.188439zm-4.279053,27.56798l-33.529105,-22.494119l14.978242,-10.078819l18.550863,12.487337l0,20.085601zm-36.95546,-44.963182l10.708525,7.206762l-10.708525,7.206762l0,-14.413525zm36.95546,-30.549657l0,20.085601l-18.550863,12.490469l-14.978242,-10.081951l33.529105,-22.494119zm8.558106,0l33.529105,22.494119l-14.97513,10.081951l-18.553975,-12.490469l0,-20.085601zm45.476222,21.927225c-0.009336,-0.065772 -0.024896,-0.125281 -0.034232,-0.187921c-0.021784,-0.122149 -0.043569,-0.244297 -0.074689,-0.360182c-0.018672,-0.072036 -0.046681,-0.140941 -0.068465,-0.209845c-0.034232,-0.106488 -0.068465,-0.209845 -0.108921,-0.313201c-0.028008,-0.072036 -0.062241,-0.144073 -0.096473,-0.209845c-0.043569,-0.100224 -0.090249,-0.194185 -0.146266,-0.285013c-0.037344,-0.068904 -0.080913,-0.134677 -0.12137,-0.200449c-0.056017,-0.090828 -0.115145,-0.178525 -0.180498,-0.263089c-0.046681,-0.06264 -0.096473,-0.125281 -0.146266,-0.184789c-0.068465,-0.081432 -0.140042,-0.159733 -0.214731,-0.234901c-0.056017,-0.056376 -0.108921,-0.115884 -0.16805,-0.165997c-0.080913,-0.072036 -0.161826,-0.140941 -0.242739,-0.206713c-0.065353,-0.050112 -0.127594,-0.100224 -0.192946,-0.147205c-0.024896,-0.01566 -0.046681,-0.037584 -0.071577,-0.053244l-45.513566,-30.537129c-1.437762,-0.96466 -3.308097,-0.96466 -4.748971,0l-45.510454,30.537129c-0.024896,0.01566 -0.046681,0.037584 -0.071577,0.053244c-0.068465,0.04698 -0.130706,0.097092 -0.192946,0.147205c-0.084025,0.065772 -0.164938,0.134677 -0.242739,0.206713c-0.059129,0.050112 -0.115145,0.10962 -0.171162,0.165997c-0.074689,0.075168 -0.146266,0.153469 -0.211619,0.234901c-0.052905,0.059508 -0.102697,0.122149 -0.149378,0.184789c-0.062241,0.084564 -0.12137,0.172261 -0.177386,0.263089c-0.043569,0.065772 -0.084025,0.131545 -0.124482,0.200449c-0.052905,0.090828 -0.099585,0.184789 -0.146266,0.285013c-0.03112,0.065772 -0.065353,0.137809 -0.093361,0.209845c-0.043569,0.103356 -0.077801,0.206713 -0.112033,0.313201c-0.021784,0.068904 -0.046681,0.137809 -0.065353,0.209845c-0.03112,0.115884 -0.052905,0.238033 -0.074689,0.360182c-0.012448,0.06264 -0.028008,0.122149 -0.034232,0.187921c-0.024896,0.181657 -0.040457,0.369578 -0.040457,0.56063l0,30.537129c0,0.187921 0.01556,0.375842 0.040457,0.563762c0.006224,0.059508 0.021784,0.122149 0.034232,0.184789c0.021784,0.122149 0.043569,0.241165 0.074689,0.360182c0.018672,0.072036 0.043569,0.140941 0.065353,0.209845c0.034232,0.103356 0.068465,0.209845 0.112033,0.316333c0.028008,0.068904 0.062241,0.137809 0.093361,0.206713c0.046681,0.097092 0.093361,0.191053 0.146266,0.288145c0.040457,0.065772 0.080913,0.131545 0.124482,0.197317c0.056017,0.090828 0.115145,0.175393 0.177386,0.259957c0.046681,0.065772 0.096473,0.128413 0.149378,0.187921c0.065353,0.0783 0.13693,0.159733 0.211619,0.231769c0.056017,0.059508 0.112033,0.115884 0.171162,0.169129c0.077801,0.072036 0.158714,0.140941 0.242739,0.206713c0.062241,0.050112 0.124482,0.100224 0.192946,0.147205c0.024896,0.01566 0.046681,0.037584 0.071577,0.053244l45.510454,30.537129c0.718881,0.48233 1.546683,0.723495 2.374486,0.723495s1.655605,-0.241165 2.374486,-0.723495l45.513566,-30.537129c0.024896,-0.01566 0.046681,-0.037584 0.071577,-0.053244c0.065353,-0.04698 0.127594,-0.097092 0.192946,-0.147205c0.080913,-0.065772 0.161826,-0.134677 0.242739,-0.206713c0.059129,-0.053244 0.112033,-0.10962 0.16805,-0.169129c0.074689,-0.072036 0.146266,-0.153469 0.214731,-0.231769c0.049793,-0.059508 0.099585,-0.122149 0.146266,-0.187921c0.065353,-0.084564 0.124482,-0.169129 0.180498,-0.259957c0.040457,-0.065772 0.084025,-0.131545 0.12137,-0.197317c0.056017,-0.097092 0.102697,-0.191053 0.146266,-0.288145c0.034232,-0.068904 0.068465,-0.137809 0.096473,-0.206713c0.040457,-0.106488 0.074689,-0.212977 0.108921,-0.316333c0.021784,-0.068904 0.049793,-0.137809 0.068465,-0.209845c0.03112,-0.119017 0.052905,-0.238033 0.074689,-0.360182c0.009336,-0.06264 0.024896,-0.125281 0.034232,-0.184789c0.024896,-0.187921 0.037344,-0.375842 0.037344,-0.563762l0,-30.537129c0,-0.191053 -0.012448,-0.378974 -0.037344,-0.56063z" clip-rule="evenodd"/>
 </g>
</svg>