<?xml version="1.0" encoding="UTF-8"?>
<svg xmlns="http://www.w3.org/2000/svg" xmlns:xlink="http://www.w3.org/1999/xlink" viewBox="0 0 100 100" width="100px" height="100px">
<g id="surface54425500">
<path style=" stroke:none;fill-rule:nonzero;fill:rgb(100%,100%,100%);fill-opacity:1;" d="M 80 13.332031 L 20 13.332031 C 16.316406 13.332031 13.332031 16.316406 13.332031 20 L 13.332031 80 C 13.332031 83.683594 16.316406 86.667969 20 86.667969 L 80 86.667969 C 83.683594 86.667969 86.667969 83.683594 86.667969 80 L 86.667969 20 C 86.667969 16.316406 83.683594 13.332031 80 13.332031 Z M 36.511719 73.332031 L 26.679688 73.332031 L 26.679688 41.691406 L 36.511719 41.691406 Z M 31.496094 37.171875 C 28.328125 37.171875 25.761719 34.601562 25.761719 31.4375 C 25.761719 28.273438 28.328125 25.707031 31.496094 25.707031 C 34.65625 25.707031 37.226562 28.277344 37.226562 31.4375 C 37.226562 34.601562 34.65625 37.171875 31.496094 37.171875 Z M 73.347656 73.332031 L 63.519531 73.332031 L 63.519531 57.945312 C 63.519531 54.277344 63.453125 49.558594 58.410156 49.558594 C 53.292969 49.558594 52.507812 53.554688 52.507812 57.679688 L 52.507812 73.332031 L 42.679688 73.332031 L 42.679688 41.691406 L 52.113281 41.691406 L 52.113281 46.015625 L 52.246094 46.015625 C 53.558594 43.53125 56.765625 40.90625 61.550781 40.90625 C 71.507812 40.90625 73.347656 47.460938 73.347656 55.980469 Z M 73.347656 73.332031 "/>
</g>
</svg>
