<?xml version="1.0" encoding="UTF-8"?>
<svg xmlns="http://www.w3.org/2000/svg" xmlns:xlink="http://www.w3.org/1999/xlink" viewBox="0 0 100 100" width="100px" height="100px">
<g id="surface54423829">
<path style=" stroke:none;fill-rule:nonzero;fill:rgb(100%,100%,100%);fill-opacity:1;" d="M 80 13.332031 L 20 13.332031 C 16.316406 13.332031 13.332031 16.316406 13.332031 20 L 13.332031 80 C 13.332031 83.683594 16.316406 86.667969 20 86.667969 L 80 86.667969 C 83.683594 86.667969 86.667969 83.683594 86.667969 80 L 86.667969 20 C 86.667969 16.316406 83.683594 13.332031 80 13.332031 Z M 75.140625 70 L 55.371094 70 L 55.371094 68.890625 L 60 64.816406 L 60 41.566406 L 48.628906 70 L 46.851562 70 L 34.167969 41.34375 L 34.167969 61.632812 L 39.964844 68.890625 L 39.964844 70 L 24.859375 70 L 24.859375 68.890625 L 30.855469 61.632812 L 30.855469 37.492188 L 25.527344 30.828125 C 25.527344 30.828125 25.527344 29.867188 25.527344 30.015625 L 40.113281 30.015625 L 51.441406 54.527344 L 61.214844 30.015625 L 75.0625 30.015625 L 75.0625 30.828125 L 70 35.085938 L 70 64.816406 L 75.140625 68.890625 Z M 75.140625 70 "/>
</g>
</svg>
