<?xml version="1.0" encoding="UTF-8"?>
<svg xmlns="http://www.w3.org/2000/svg" xmlns:xlink="http://www.w3.org/1999/xlink" viewBox="0 0 100 100" width="100px" height="100px">
<g id="surface6568306">
<path style=" stroke:none;fill-rule:nonzero;fill:rgb(36.470589%,25.098041%,21.568628%);fill-opacity:1;" d="M 81.875 38.136719 C 81.875 74.4375 50 85.417969 50 85.417969 C 50 85.417969 18.125 74.4375 18.125 38.136719 C 18.125 33.707031 18.480469 29.988281 18.832031 26.980469 C 19.363281 22.550781 22.375 19.011719 26.625 17.949219 C 32.113281 16.355469 40.792969 14.582031 50 14.582031 C 59.207031 14.582031 67.886719 16.355469 73.550781 17.949219 C 77.800781 19.011719 80.8125 22.730469 81.34375 26.980469 C 81.519531 29.988281 81.875 33.886719 81.875 38.136719 Z M 81.875 38.136719 "/>
<path style=" stroke:none;fill-rule:nonzero;fill:rgb(29.803923%,68.627453%,31.37255%);fill-opacity:1;" d="M 50 19.894531 C 58.675781 19.894531 66.824219 21.667969 72.136719 23.082031 C 74.261719 23.613281 75.675781 25.386719 76.03125 27.6875 C 76.386719 31.050781 76.5625 34.59375 76.5625 38.136719 C 76.5625 65.761719 56.199219 76.917969 50 79.574219 C 43.800781 76.738281 23.4375 65.582031 23.4375 38.136719 C 23.4375 34.59375 23.613281 31.050781 23.96875 27.6875 C 24.144531 25.386719 25.738281 23.613281 27.863281 23.082031 C 33.175781 21.667969 41.324219 19.894531 50 19.894531 M 50 14.582031 C 40.792969 14.582031 32.113281 16.355469 26.449219 17.949219 C 22.375 19.011719 19.1875 22.730469 18.832031 26.980469 C 18.480469 29.988281 18.125 33.886719 18.125 38.136719 C 18.125 74.4375 50 85.417969 50 85.417969 C 50 85.417969 81.875 74.4375 81.875 38.136719 C 81.875 33.707031 81.519531 29.988281 81.167969 26.980469 C 80.636719 22.550781 77.625 19.011719 73.375 17.949219 C 67.886719 16.355469 59.207031 14.582031 50 14.582031 Z M 50 14.582031 "/>
<path style=" stroke:none;fill-rule:nonzero;fill:rgb(86.274511%,92.941177%,78.431374%);fill-opacity:1;" d="M 48.230469 57.082031 L 51.769531 57.082031 L 51.769531 71.25 L 48.230469 71.25 Z M 48.230469 57.082031 "/>
<path style=" stroke:none;fill-rule:nonzero;fill:rgb(29.803923%,68.627453%,31.37255%);fill-opacity:1;" d="M 50 25.207031 C 50 25.207031 39.375 34.0625 39.375 48.230469 C 39.375 57.4375 45.21875 63.28125 48.230469 65.9375 L 50 60.625 L 51.769531 65.9375 C 54.78125 63.28125 60.625 57.4375 60.625 48.230469 C 60.625 34.0625 50 25.207031 50 25.207031 Z M 50 25.207031 "/>
<path style=" stroke:none;fill-rule:nonzero;fill:rgb(50.588238%,78.039217%,51.764709%);fill-opacity:1;" d="M 50 25.207031 C 50 25.207031 39.375 34.0625 39.375 48.230469 C 39.375 57.4375 45.21875 63.28125 48.230469 65.9375 L 50 60.625 Z M 50 25.207031 "/>
</g>
</svg>
